<?xml version="1.0" encoding="iso-8859-1"?>
<!-- Generator: Adobe Illustrator 19.0.0, SVG Export Plug-In . SVG Version: 6.00 Build 0)  -->
<svg version="1.1" id="Capa_1" xmlns="http://www.w3.org/2000/svg" xmlns:xlink="http://www.w3.org/1999/xlink" x="0px" y="0px"
	 viewBox="0 0 512 512" style="enable-background:new 0 0 512 512;" xml:space="preserve">
<rect x="216.456" y="427.376" style="fill:#353A3D;" width="79.088" height="84.624"/>
<path style="fill:#3E4347;" d="M333.96,436.688H178.008c-6.688,0-12.128-5.424-12.128-12.128v-30.448
	c0-6.704,5.424-12.128,12.128-12.128H333.96c6.704,0,12.128,5.424,12.128,12.128v30.448
	C346.088,431.248,340.664,436.688,333.96,436.688z"/>
<path style="fill:#DAE5EF;" d="M460.664,41.952v325.424c0,23.264-18.848,41.952-41.952,41.952h-325.6
	c-23.104,0-41.776-18.688-41.776-41.952V41.952C51.32,18.688,70.008,0,93.112,0h325.6C441.8,0,460.664,18.688,460.664,41.952z"/>
<polygon style="fill:#E24B4B;" points="93.112,366.864 93.784,41.952 418.696,42.464 418.184,366.864 "/>
<path style="fill:#D03F3F;" d="M418.712,42.464L418.2,366.88H193.144c82.032-47.056,153.888-128.912,186.144-221.984
	c12.576-36.352,18-70.992,16.992-102.416h22.432V42.464z"/>
<path style="fill:#FFFFFF;" d="M176.824,307.648v-206.48c41.568,0,99.552-1.44,116.48,3.104C314.488,109.824,335,129.12,335,164.688
	c0,12.672-2.304,23.328-6.896,31.968c-8.912,16.736-23.552,26.736-39.152,30.144c-18.256,3.616-45.168,2.96-70.416,2.96v77.888
	H176.824z M218.504,136.096v58.592c11.904,0,44.832,1.024,55.776-3.232c10.784-4.208,17.744-13.6,17.744-26.192
	c0-15.584-10.24-25.376-23.376-27.744C258.824,135.664,228.632,136.096,218.504,136.096z"/>
<g style="opacity:0.1;">
	<path style="fill:#FFFFFF;" d="M327.304,50.32c0.416-2.704,0.528-5.312,0.88-8l-234.4-0.368l-0.608,288.336
		C206.312,304.144,306.168,188.768,327.304,50.32z"/>
</g>
<g>
	<path style="fill:#353A3D;" d="M140.728,80.48c0,6.48-5.344,11.824-11.824,11.824c-6.608,0-11.824-5.344-11.824-11.824
		c0-6.608,5.2-11.968,11.824-11.968C135.384,68.512,140.728,73.872,140.728,80.48z"/>
	<path style="fill:#353A3D;" d="M394.728,80.48c0,6.48-5.344,11.824-11.824,11.824c-6.608,0-11.824-5.344-11.824-11.824
		c0-6.608,5.2-11.968,11.824-11.968C389.384,68.512,394.728,73.872,394.728,80.48z"/>
	<path style="fill:#353A3D;" d="M140.728,328.48c0,6.48-5.344,11.824-11.824,11.824c-6.608,0-11.824-5.344-11.824-11.824
		c0-6.608,5.2-11.968,11.824-11.968C135.384,316.512,140.728,321.872,140.728,328.48z"/>
	<path style="fill:#353A3D;" d="M394.728,328.48c0,6.48-5.344,11.824-11.824,11.824c-6.608,0-11.824-5.344-11.824-11.824
		c0-6.608,5.2-11.968,11.824-11.968C389.384,316.512,394.728,321.872,394.728,328.48z"/>
</g>
<g>
</g>
<g>
</g>
<g>
</g>
<g>
</g>
<g>
</g>
<g>
</g>
<g>
</g>
<g>
</g>
<g>
</g>
<g>
</g>
<g>
</g>
<g>
</g>
<g>
</g>
<g>
</g>
<g>
</g>
</svg>
